# xmcd
#
# Track frame offsets:
#  150
#  14094
#  33546
#  49331
#  67837
#  79394
#  93298
#  109841
#  126366
#  141800
#  160829
#  184743
#
# Disc length: 2680 seconds
#
# Revision: 0
# Processed by: cddbd v1.5.1PL2 Copyright (c) Steve Scherf et al.
# Submitted via: Collectorz.com_Music_Collector 6.11
#
DISCID=a60a760c
DTITLE=Paul Michiels - Magic In The House
DYEAR=2005
DGENRE=Pop
TTITLE0=magic in the house
TTITLE1=in a silent way
TTITLE2=if I live if I breathe
TTITLE3=are you still on my side
TTITLE4=perfect handy loving man
TTITLE5=unforgivable
TTITLE6=I´ll wait
TTITLE7=the light
TTITLE8=vanish
TTITLE9=blame the night
TTITLE10=fly alone
TTITLE11=the light (instrumental)
EXTD=
EXTT0=
EXTT1=
EXTT2=
EXTT3=
EXTT4=
EXTT5=
EXTT6=
EXTT7=
EXTT8=
EXTT9=
EXTT10=
EXTT11=
PLAYORDER=
